<svg id="Layer_1" data-name="Layer 1" xmlns="http://www.w3.org/2000/svg" xmlns:xlink="http://www.w3.org/1999/xlink" viewBox="0 0 511.5 262.83"><defs><style>.cls-1,.cls-5{fill:none;}.cls-2{fill:#fff;}.cls-3{clip-path:url(#clip-path);}.cls-4{clip-path:url(#clip-path-2);}.cls-5{stroke:#fff;stroke-miterlimit:10;stroke-width:2px;}</style><clipPath id="clip-path"><rect class="cls-1" x="204.68" y="86.4" width="299.71" height="88.99"/></clipPath><clipPath id="clip-path-2"><rect class="cls-1" x="204.68" y="86.4" width="299.71" height="88.99"/></clipPath></defs><title>LGC LCC logo</title><path class="cls-2" d="M148.73,62.1V202.74H8.09V62.1H148.73m3.7-3.8H4.39V206.44h148V58.3ZM40.13,82.19V103.3H34.29V82.19h-8V76.82H48.18v5.37Zm33.7,21.11V92.65H63.09V103.3H57.25V76.82h5.84V87.28H73.83V76.82h5.83V103.3Zm19.16,0V76.82h5.84V103.3Zm28.06.46a16.65,16.65,0,0,1-11.21-4.26l3.43-4.17c2.41,2,4.91,3.24,7.87,3.24,2.41,0,3.8-.92,3.8-2.5V96c0-1.48-.93-2.22-5.37-3.33-5.37-1.39-8.8-2.87-8.8-8.15v-.09c0-4.82,3.89-8,9.26-8a15.31,15.31,0,0,1,9.81,3.33l-3,4.35a11.94,11.94,0,0,0-6.85-2.59c-2.23,0-3.43,1-3.43,2.31V84c0,1.75,1.11,2.31,5.74,3.51,5.37,1.39,8.43,3.34,8.43,8v.09C130.86,100.8,126.79,103.76,121.05,103.76ZM39.57,186.63A13.4,13.4,0,0,1,26,173v-.1a13.46,13.46,0,0,1,13.79-13.7,13.86,13.86,0,0,1,10.47,4.07l-3.71,4.26a9.79,9.79,0,0,0-6.76-3c-4.44,0-7.68,3.7-7.68,8.24v.09c0,4.54,3.15,8.34,7.68,8.34,3.06,0,4.91-1.21,7-3.15l3.7,3.7A13.36,13.36,0,0,1,39.57,186.63Zm45.74-.47-2.41-5.92H71.7l-2.41,5.92H63.36L74.75,159.5h5.37l11.39,26.66Zm-8.06-19.72-3.52,8.61h7Zm48.43,19.72-12.87-16.85v16.85h-5.74V159.68h5.37l12.4,16.3v-16.3h5.74v26.48ZM39.94,145.24c-8.24,0-14-5.83-14-13.61v-.19a13.59,13.59,0,0,1,13.89-13.7c4.81,0,7.68,1.3,10.37,3.61l-3.71,4.45a9.92,9.92,0,0,0-6.94-2.69c-4.26,0-7.59,3.7-7.59,8.24v.09c0,4.82,3.33,8.43,8.05,8.43a9.61,9.61,0,0,0,5.47-1.57v-3.8H39.75v-5H51.24V141A17.36,17.36,0,0,1,39.94,145.24Zm21.67-.46V118.3h5.83v26.48Zm34,0-5.65-8.52H85.4v8.52H79.57V118.3h12c6.21,0,10,3.33,10,8.7v.09A8.33,8.33,0,0,1,96,135.33l6.48,9.45Zm.18-17.5c0-2.5-1.76-3.8-4.54-3.8H85.4v7.59h5.93c2.77,0,4.44-1.48,4.44-3.79Zm15.74,17.5V118.3h5.83v21.2h13.24v5.28Z"/><g id="LCC_logo_white" data-name="LCC logo white"><g class="cls-3"><g class="cls-4"><path class="cls-2" d="M504.39,171a4.12,4.12,0,0,1-.08.83,2.52,2.52,0,0,1-.22.75q-1-.1-6-.11h-.87l-.11-.26.09-2.25c0-.79.06-1.8.06-3s0-2.24-.06-3l-.09-2.27.11-.23h1.85l.11.23c-.12,1.79-.17,3.55-.17,5.29,0,1.35.05,2.91.15,4.7a21.05,21.05,0,0,0,4.12-.13,2,2,0,0,0,1.13-.51M383.14,123l-.28,1.8-28.35,13.1a40.42,40.42,0,0,0,2.61,4.62q3.6,5.81,11.08,5.8,8.73,0,14.67-7.65.9,1.71-.09,5.13-8.29,7.13-16.12,7.12-9.56,0-15.49-5.9a21.77,21.77,0,0,1-.36-29.5,19.74,19.74,0,0,1,14.77-6.12,17.61,17.61,0,0,1,13,5,62.09,62.09,0,0,1,4.59,6.57m-7.75,2.81a19.06,19.06,0,0,0-2.7-6.67q-3-4.68-9.18-4.68a8.48,8.48,0,0,0-8.11,5q-2.16,4.41-2.25,11.62a18.74,18.74,0,0,0,.45,4.32ZM423.67,123l-.28,1.8-28.34,13.1a40.42,40.42,0,0,0,2.61,4.62q3.6,5.81,11.07,5.8,8.73,0,14.67-7.65.9,1.71-.09,5.13-8.28,7.13-16.12,7.12-9.54,0-15.49-5.9a21.77,21.77,0,0,1-.36-29.5,19.76,19.76,0,0,1,14.77-6.12,17.6,17.6,0,0,1,13,5,62.09,62.09,0,0,1,4.59,6.57m-7.74,2.81a18.89,18.89,0,0,0-2.71-6.67q-3-4.68-9.18-4.68a8.49,8.49,0,0,0-8.11,5q-2.16,4.41-2.25,11.62a18.74,18.74,0,0,0,.45,4.32ZM296.37,166.07l-2.07,3.14,2.85,3.14H275.26v-4.42h-3.44v-1.86Zm-67.31,3.14h45.06v6.18H229.06Zm-22.38-3.15h24.54v1.87h-3.44v4.42H205.89l2.85-3.14ZM229,99.37c0-.47.55-.85,1.22-.85s1.21.38,1.21.85-.55.85-1.21.85l-.29,0a4.32,4.32,0,0,0-1,2.34v1.87H217.48s0-1.33,0-1.82a6.83,6.83,0,0,0-1.22-2.38h-.17c-.67,0-1.21-.38-1.21-.85s.54-.85,1.21-.85,1.21.38,1.21.85a.77.77,0,0,1,0,.15c2.81,2.93,5,3.27,5.32-.12h1.11c.08,3.27,1.77,3.21,5.3.21a.69.69,0,0,1,0-.24M222,98.2c0-.47.54-.85,1.21-.85s1.21.38,1.21.85-.54.85-1.21.85S222,98.67,222,98.2m-4.53,7.65c0,.11-.09,1.05.63,1.34,1.65.65,4.71-.15,5.64,4.12a.2.2,0,0,0,.38,0c-.09-2.51,1.37-3.71,3.7-4.3.67-.22,1.29-.35,1.43-.74s-.19-1.88,1.17-1.87a.65.65,0,0,1,.67.56c.07.78-.55,1-.33,1.24a.49.49,0,0,1,0,.64c-.21.26-.32.14-1.14.49a2.53,2.53,0,0,0-1.44,1.24c-.12.32-.08.24,0,.62s.92.67.69.72-.7.08-.83.25a1.94,1.94,0,0,1-1.2.8c-.63.08-.64,0-1.09.19a2.57,2.57,0,0,0-1.54,1.85c-.08.38-.13.47-.3.36s0-.32-.34-.74-.58-1.18-1.51-1.22c-.61,0-1.81.11-2.1-.31-.54-.76-1-.65-1.06-.84s.54-.19.48-.7-.3-.87-1.2-1.27-1.69-.41-1.82-.62a.51.51,0,0,1-.07-.52c.1-.41,0-.22-.31-.53s-.16-1.62.68-1.57a.88.88,0,0,1,.82.83m2.59,4.2a.83.83,0,0,0,.93.72.82.82,0,0,0,.72-.92.83.83,0,1,0-1.65.2m5.4-.29a.83.83,0,0,0,1.65-.2.83.83,0,1,0-1.65.2m5,18.9L230,130.5c-.22-.47-.79-.27-1.18-.05l.73-2.14c.41-.46.82-.36.93.35m-2.22,6.77a13.14,13.14,0,0,1-4.4,5.27c-1.71,1.12-.29-.15-.27-.23a15.87,15.87,0,0,0,3.91-5.67.49.49,0,0,1,.76.63m2.65-13.24v1.93a.57.57,0,0,0-1,0v-1.91c.27-.59.69-.65,1,0m-1.72-5.5a2.89,2.89,0,0,1,1.09,2.06c0-.08-.76-.79-1.1,0a3.06,3.06,0,0,0-.88-1.6c-.2,0-.27-1.11.89-.41m-2,5.49.1,1.93a.57.57,0,0,0-1,0l-.1-1.91c.24-.61.65-.69,1-.07m-2.38-5.25a3.82,3.82,0,0,1,1.54,1.79c-.07-.07-1.35-1.08-1.47.11a2.75,2.75,0,0,0-.93-1.44c-.2,0-.33-1.1.86-.46m47.05-17.57c0-.47.54-.85,1.21-.85s1.21.38,1.21.85a.69.69,0,0,1,0,.24c3.53,3,5.23,3.06,5.31-.21h1.1c.29,3.39,2.51,3,5.32.12a.76.76,0,0,1,0-.15c0-.47.54-.85,1.21-.85s1.21.38,1.21.85-.54.85-1.21.85H287a6.67,6.67,0,0,0-1.22,2.38c0,.49,0,1.82,0,1.82H274.38v-1.87a4.28,4.28,0,0,0-1-2.35,1.43,1.43,0,0,1-.29,0c-.67,0-1.21-.38-1.21-.85m6.93-1.17c0-.47.54-.85,1.21-.85s1.21.38,1.21.85-.54.85-1.21.85-1.21-.38-1.21-.85m7,7.64a.87.87,0,0,1,.82-.82c.83-.05,1,1.27.67,1.57s-.4.11-.3.53a.54.54,0,0,1-.08.52c-.13.21-.92.22-1.82.62s-1.13.75-1.2,1.27.49.56.48.69-.51.09-1.05.85c-.3.42-1.5.28-2.1.31-.93,0-1.2.79-1.51,1.21s-.18.64-.34.75-.22,0-.31-.36a2.6,2.6,0,0,0-1.54-1.86c-.45-.22-.46-.11-1.09-.18a2,2,0,0,1-1.2-.8c-.13-.17-.58-.21-.82-.26s.64-.26.69-.71.08-.3,0-.63a2.56,2.56,0,0,0-1.45-1.23c-.81-.35-.93-.23-1.14-.49a.52.52,0,0,1,0-.65c.22-.27-.4-.45-.33-1.23a.64.64,0,0,1,.68-.56c1.36,0,1,1.46,1.17,1.87s.76.52,1.42.73c2.33.6,3.8,1.8,3.7,4.31.12.22.31.16.38,0,.94-4.27,4-3.46,5.65-4.11.71-.29.61-1.24.63-1.35m-8.3,3.92a.83.83,0,1,0-.93.72.83.83,0,0,0,.93-.72m5.4.29a.84.84,0,1,0-.93.72.83.83,0,0,0,.93-.72m-10.07,18.61c.12-.71.53-.81.93-.35l.74,2.13c-.4-.22-1-.41-1.19.06Zm2.22,6.77a.5.5,0,0,1,.77-.63,15.5,15.5,0,0,0,3.91,5.66c0,.09,1.43,1.36-.28.24a13.3,13.3,0,0,1-4.4-5.27m-2.65-13.24c.29-.63.7-.57,1,0v1.91a.57.57,0,0,0-1,0Zm1.73-5.5c1.16-.7,1.08.37.89.41a3.06,3.06,0,0,0-.88,1.6c-.35-.74-1.06,0-1.11,0a2.84,2.84,0,0,1,1.1-2.06m2,5.48c.33-.61.73-.53,1,.08l-.1,1.91a.57.57,0,0,0-1-.05Zm2.38-5.24c1.19-.64,1.06.42.87.46a2.69,2.69,0,0,0-.93,1.44c-.13-1.19-1.4-.19-1.47-.11a3.79,3.79,0,0,1,1.53-1.79M266,86.47c3.32.55,3.65,1.16,3.84,1.43a8.06,8.06,0,0,1,0,2.69c0,.43-.81,1.15-.83,1.08-.13-2-.37-1.38-1.11-2a7.69,7.69,0,0,1-1.9-3.2m25.28,4c1,.45.57,1.88.42,2.08C291,94,289.49,95,286.8,95.1a3.33,3.33,0,0,0,2.45-2.61c.31-1.61.87-2.4,2.07-2m-54.42-4a7.69,7.69,0,0,1-1.9,3.2c-.74.62-1,0-1.11,2,0,.07-.83-.65-.83-1.08a8.06,8.06,0,0,1,0-2.69c.19-.27.52-.88,3.84-1.43m-25.28,4c1.21-.35,1.76.44,2.07,2A3.32,3.32,0,0,0,216.14,95c-2.69-.11-4.18-1.08-4.94-2.58-.15-.19-.59-1.63.42-2.08M267.34,90c.56.27.83.81,1,1.7.13.45.76.67,2.1.57a7.29,7.29,0,0,0-.7.77,23.34,23.34,0,0,0-.76,3.86c-.17,0-.38-1.36-.38-1.36a12.35,12.35,0,0,1-2.22,1.36l-.64.22c-1.08,1-2,2.78-3.49,4.44a3.65,3.65,0,0,1-2.68.67,9,9,0,0,1-1.57-.28s1.8-.73,1.8-.73a4.62,4.62,0,0,0,1.67-1.39,10.34,10.34,0,0,0,1-4,4.16,4.16,0,0,1,1-3.12,6.67,6.67,0,0,0,.43-.69,2.48,2.48,0,0,1,.27.61,6,6,0,0,1,.89,1.24c.06.08.17.11.24.21a4.58,4.58,0,0,1,.18-1.85A6.2,6.2,0,0,1,267.34,90m18.93.84a2.38,2.38,0,0,1,2.58.87c0,.52,0,3.28-3.41,2.87-.57-.59-1.3-1-1.74-.89-.27.32,0,.69.49,1.14a1.36,1.36,0,0,1,.3,1c-2.4.35-4.38-1.18-4.89-3.8A5.27,5.27,0,0,0,277.29,90c2.09-.17,4.36.23,4.79-.17a3.15,3.15,0,0,1,1.81-1.06,7.56,7.56,0,0,1,2.08.35,4.07,4.07,0,0,0,1.68-.37,3.57,3.57,0,0,1-1.38,2.1m-69.6-.07a3.57,3.57,0,0,1-1.38-2.1A4.07,4.07,0,0,0,217,89a8.09,8.09,0,0,1,2.08-.35,3.15,3.15,0,0,1,1.81,1.06c.43.4,2.7,0,4.79.17A5.27,5.27,0,0,0,223.34,92c-.51,2.62-2.49,4.15-4.88,3.8a1.31,1.31,0,0,1,.29-1c.5-.45.76-.82.49-1.14-.44-.16-1.17.3-1.74.89-3.44.41-3.38-2.35-3.41-2.87a2.38,2.38,0,0,1,2.58-.87m29.88,16.66c-.11-.37.26-.54.52-.34a8.71,8.71,0,0,0,2.63,3.07s.05.25-.18.13a7.73,7.73,0,0,1-3-2.86m-1.43-3.68c.08-.38.36-.44.63-.19l.49,1.16c-.26-.12-.64-.22-.79,0Zm-.24-3.53c.19-.34.47-.31.65,0v1a.43.43,0,0,0-.65,0Zm6.4,35.17a.89.89,0,0,1,1.77,0,.89.89,0,1,1-1.77,0m-.28,5.78a2.88,2.88,0,0,0-.88,1.45l0,1.79.3,1.11.12,2.82c-.1.63-1,.61-1.18.81-.24.44-.11,1.32-.27,1.8a3.23,3.23,0,0,1-.78,1.22,2.6,2.6,0,0,0,0,.91c.12.39,0,5.42.25,5.74a7.13,7.13,0,0,1,.36,1.69c0,.59-.22.89-.61.91s-.49-.16-.56-.59a40.28,40.28,0,0,0-.18-4.51,6.33,6.33,0,0,0-.23-1.69l-1.12-1.87a2.71,2.71,0,0,0-.74-.79l.3-.81a4.87,4.87,0,0,0,.1-1.23,2.62,2.62,0,0,0,1.89-.9c1.06-.85.45-3.88-.78-4.64a2.93,2.93,0,0,0-2.13-.2c-1,.3-1.75.63-1.86,1.52s.1,1,.62,1,.43-.55.87-.93a2.13,2.13,0,0,1,1.83-.14,2.41,2.41,0,0,1,.65,2.61,1.56,1.56,0,0,1-1.73.41c-.24-.11-.65-.52-.41-.92s.49-.24.71-.08a.57.57,0,0,0,.84-.06c.21-.34,0-.68-.35-1a1.77,1.77,0,0,0-1.4-.07,1.73,1.73,0,0,0-1,1.71c.11.8.49,1.51,1.15,1.58a1.81,1.81,0,0,1,0,.83,4.4,4.4,0,0,1-.81,1.45,1.64,1.64,0,0,1-1.26,0,3.5,3.5,0,0,1-1.25-2.33,2.44,2.44,0,0,0-1.1-1.69.93.93,0,0,1-.79-.79c0-.59.56-.7,1.43-.61.78-.29,1-.53,1.32-1.32,0-.07.34-.48.36-.55a1.94,1.94,0,0,0,0-.72c0-.18,0-.4,0-.4.21-1.34.88-1.17,1.46-1.45a.26.26,0,0,0,.15-.25c-.06-2.07,1-2.93,3.35-3.07.86-1.42,1.75-1.92,3.29-1.4Zm-7.24,12.23a2.31,2.31,0,0,0,1.22-.6,1.16,1.16,0,0,0,.29.48,37.66,37.66,0,0,0-.08,4.79l.2.32c0,.58.05.72-.08.94a.5.5,0,0,1-.54-.07,1.75,1.75,0,0,1-.53-1,14.55,14.55,0,0,1-.14-2.47,1,1,0,0,1-.24-.61Zm9.62-15.74a1.5,1.5,0,0,1,1.47-.24,2.7,2.7,0,0,1,1,1.37c1.29-.14,2.14.1,2.55.74a1.63,1.63,0,0,1,0,1.23,6.3,6.3,0,0,1,2,1.57,1.06,1.06,0,0,1,0,1.47q-.15.39,0,.54l1,1.25a1.1,1.1,0,0,1-.22,1.77.67.67,0,0,0,0,.78,6,6,0,0,1,.76,3.29q-.34.85-1.23.15l0-3c-.3-.69-1.11-.42-1.08.29v3.49a9.39,9.39,0,0,0,.27,1.4c.11.26.05,3.66.05,3.66a3.28,3.28,0,0,1-.37,1.42l-.79,1c-.13,0-.21,0-.24-.13a19.17,19.17,0,0,0,.07-5.79l-1.42-3.22a12.92,12.92,0,0,1-.1-3.23,4.88,4.88,0,0,1,.86-1.28c.24-.67,0-.94-.67-.81a3.65,3.65,0,0,0-1.2,3.39,6.55,6.55,0,0,1,.25,2.33.91.91,0,0,0-.32.61,10.72,10.72,0,0,0,0,2.77l-.16,3a2.12,2.12,0,0,1-.78.91,37.83,37.83,0,0,0-.35-6.79c-.25-1-.49-1.86.05-2.55a3.45,3.45,0,0,0,.1-1.38l-.34-1.24a5.62,5.62,0,0,1,.19-2.72,2.41,2.41,0,0,0-1.25-2.45Zm37.26-12q.08.7.09,1.38l1.22,1.81a3.16,3.16,0,0,0-.51-1.73,14,14,0,0,0-.8-1.46m-.06,4.2c-.07.52-.16,1-.27,1.51l2.42,2.47-.07-1.15c-.69-.87-1.27-1.69-2.08-2.83m-.81,3.56q-.19.62-.42,1.2a39.47,39.47,0,0,0,4.13,3.49l-.09-.78a32,32,0,0,1-3.62-3.91m-1,2.73c-.18.42-.36.83-.55,1.22a31.07,31.07,0,0,0,6,4.75c0-.16,0-.45-.05-.59a50.2,50.2,0,0,1-5.39-5.38m-1.16,2.47c-.37.73-.71,1.4-1,2a59.89,59.89,0,0,0,8.63,8.18,11.88,11.88,0,0,1-1.24-3.88c-1.28-.75-3.39-2.89-6.4-6.31m-6.78-16.3c1.52-2.25,3.7-3.85,6.12-3.71.09-.35-.09-.69-.55-1s-.87-.14-1.67.25a3.06,3.06,0,0,1-2.45-.74c-.05-.12,0-.21.14-.24l2.06-.79v-.29a9.12,9.12,0,0,1-3.87.14c-.69-.09-1.1-.6-1.23-1.52-.15-.32.13-.38.34-.2a1.67,1.67,0,0,0,1.53.79,11.14,11.14,0,0,0,3.23-.29,1.63,1.63,0,0,0,1.23-1.28q.07-.25-.24-.15a2.75,2.75,0,0,1-1.79.22c-.37,0-.33-.21.07-.41q2.46-1.34,2.16-3.24c.1-.27.21-.35.34-.25a5.21,5.21,0,0,1-.3,5.68.44.44,0,0,0-.13.32l.17.22a34.54,34.54,0,0,1,6.4,12.58c.94,4.43,2,15.94,3.76,19.09a25.27,25.27,0,0,0,2.45,5,10.74,10.74,0,0,1-4.54-.65l1.27,9.69-6.86-2.07-1.75-4.71c-.09-.23-.24-.35-.53-.15a6,6,0,0,1-2.52.11c-.49-.09-.64-.06-.69.19a17.5,17.5,0,0,0,0,2.65,1.61,1.61,0,0,0,.94,1.14l.93.34a1.52,1.52,0,0,1,.94.69,2.8,2.8,0,0,0,1,1.31c.3.1.53.12.46.66a.63.63,0,0,1-.69.61,1.55,1.55,0,0,1-1.18-.64,5.18,5.18,0,0,0-2.09-1.7,4.94,4.94,0,0,0-3.68,0,12.21,12.21,0,0,0-4.32,2.39c-.17.11-.3.1-.37,0l.43-2.28a1,1,0,0,1,.64-.74l5-1.31.08-3.61a6.8,6.8,0,0,1-2.34-2.8c-.51-2-2.84-3-2.84-3a5.5,5.5,0,0,0-2-.95l-.07-.09c-.48,0-1.28,0-2.42,0a1.62,1.62,0,0,0-1.12,1l-.33.93c-.12.45-.25.56-.67.95a2.87,2.87,0,0,0-1.29,1,1,1,0,0,1-.12.23v.19c-.68,2.16-6.58,11.21-16.3,14.94-7.56-2.75-14.72-11-16-14.82v-.15a1,1,0,0,1-.25-.38,2.83,2.83,0,0,0-1.29-1,1.67,1.67,0,0,1-.67-1l-.33-.93a1.61,1.61,0,0,0-1.12-1c-1.13,0-1.94-.07-2.41,0l-.08.1c-.59,0-1,.42-2,.94,0,0-2.34,1-2.84,3a6.75,6.75,0,0,1-2.35,2.8l.09,3.61,5,1.31a1.06,1.06,0,0,1,.65.74l.43,2.28c-.08.12-.2.13-.38,0a12.12,12.12,0,0,0-4.32-2.39,5,5,0,0,0-3.67,0,5.2,5.2,0,0,0-2.09,1.7,1.53,1.53,0,0,1-1.18.64.64.64,0,0,1-.7-.61c-.07-.53.16-.55.47-.66a2.88,2.88,0,0,0,1-1.31,1.49,1.49,0,0,1,.94-.69l.92-.34a1.62,1.62,0,0,0,.95-1.14,17.07,17.07,0,0,0,0-2.65c0-.25-.2-.28-.68-.19a6.2,6.2,0,0,1-2.53-.1c-.28-.2-.44-.09-.53.14l-1.74,4.71L208,161.51l1.27-9.68a10.88,10.88,0,0,1-4.54.64,25,25,0,0,0,2.46-5c1.76-3.15,2.81-14.65,3.76-19.09a34.6,34.6,0,0,1,6.39-12.58l.17-.22a.37.37,0,0,0-.13-.32,5.21,5.21,0,0,1-.29-5.68c.12-.1.24,0,.34.25q-.3,1.92,2.16,3.24c.4.21.44.42.07.41a2.79,2.79,0,0,1-1.79-.21c-.21-.08-.29,0-.25.14a1.63,1.63,0,0,0,1.23,1.28A11.18,11.18,0,0,0,222,115a1.64,1.64,0,0,0,1.52-.78c.22-.18.49-.13.34.19-.12.93-.53,1.43-1.22,1.53a9,9,0,0,1-3.88-.15v.29l2.06.79c.15,0,.19.12.15.24a3,3,0,0,1-2.46.74c-.8-.39-1.12-.49-1.66-.25s-.68.73-.52,1.11c2.34-.13,4.48,1.39,6,3.55,1.31,1,1.88,4.09,1.44,6.59q-.44,8.31-13,19.33l-1.62,11.45,1.06-.41,1.14-8.16,1-.38-1.22,8.3,2.79-.84L217.92,148l.86-1.1,1.05-.56c.48-.15.64.17.47.52a5.66,5.66,0,0,0-1.39,1.85l-1.17,3a1.52,1.52,0,0,0,.13,1.68c.28.51,2,.48,3.55-.11a5.26,5.26,0,0,0,2.56-3.36,4.12,4.12,0,0,1,2.07-2.3,3.43,3.43,0,0,0,1.44-3.07l.2-3.92c0-.61.6-2.36,2.77-6.38,2.23-6,2.82-10.77,1.74-14.44q-.45-3.93-3.71-4.3l-3,.18a2.16,2.16,0,0,1-1.17-1.08q-.39-.7.27-.54a1.44,1.44,0,0,0,1.17.67l2-.13a1.73,1.73,0,0,0,1.37-.77c.68-.95.33-2.3.4-3.78.1-.73.77-.9,1.06-.21a.88.88,0,0,1-.12,1,7.44,7.44,0,0,1-.47,3.22c-.39.44-.27.7.25.79a6.86,6.86,0,0,1,2.65,2.94c2.38,6.15,1.19,12.43-3.37,21.36a13.69,13.69,0,0,0-.66,5.25l0,1.19h3.5l1.4-5a1,1,0,0,1,.74-.63l1-.17V121.49h10.87c-.14-.1.36-1.27.66-1.43s3.25-.69,3.25-.69,0-1.49,0-1.73-.75-.69-1-1a9.57,9.57,0,0,1-.93-1.46c-.32-.53-.67-1.22-.83-1.44s-.95-1.65-1.19-2a6.94,6.94,0,0,1-.43-1.73,14.83,14.83,0,0,0-1.42-2.59,5.35,5.35,0,0,1-1.79,1,8.52,8.52,0,0,1-2.48.34,3.49,3.49,0,0,1-3-1.77,3.65,3.65,0,0,1,.34-3c.07-.12.15-.12.23,0l2,2.64a3.13,3.13,0,0,0,2.73,1.08,4,4,0,0,0,1.76-.79c-.09-.19-.2-.45-.32-.76a1.88,1.88,0,0,1-1,.83,1.58,1.58,0,0,1-1.16.09,1.94,1.94,0,0,1-1-.54c.22-1.26,1.94-2.18,2.18-2.3a1,1,0,0,1,.27-.11c-.05-.19-.1-.37-.16-.56-1.76-.07-8.05.09-11.1-5.33-1.43-2.56-2.66-5.55-4.32-6.63a3.07,3.07,0,0,0-3.39.08,3.91,3.91,0,0,1,2-1.38,14.39,14.39,0,0,1,2.09,0c1.85.42,4.29,2.88,4.16,2.79a14.55,14.55,0,0,1,.88,3.58c.17.67,1.06,1.46,1.42,2a6.06,6.06,0,0,1-.11-2.13,6.84,6.84,0,0,0,2.1,1c1.25.9,1.9,2.35,2.85,3.65a5.38,5.38,0,0,0,3.23,1.44l0-.12c0-.1,0-.19-.06-.29a3.47,3.47,0,0,1-2.12-.73A42,42,0,0,0,237.21,97l-.64-.23a11.91,11.91,0,0,1-2.21-1.36s-.21,1.38-.39,1.36a23,23,0,0,0-.76-3.85,5.67,5.67,0,0,0-.7-.78c1.34.11,2-.12,2.11-.57a2,2,0,0,1,1-1.7,6.2,6.2,0,0,1,2,2.25,4.6,4.6,0,0,1,.18,1.85c.07-.1.18-.12.24-.21a6.27,6.27,0,0,1,.89-1.24,2.48,2.48,0,0,1,.27-.61,6.67,6.67,0,0,0,.43.69,4.17,4.17,0,0,1,1,3.12,10.34,10.34,0,0,0,.95,4c.51.75.73.87,1.2,1,.16-2.28,1.52-4.15,2.16-4.29.13,0,.27-.18,0-.26a1.3,1.3,0,0,1-.93-1.33c0-.52-.24-3.25-.16-3.54s.55-.08.61.08.13,2.11.24,2.93a2,2,0,0,0,1.12,1.46,13.43,13.43,0,0,0,2.12,0c.38,0,.11-.08.32-.19a.52.52,0,0,1,.51,0c.13.08.05.45-.08.64a2.2,2.2,0,0,1-1.12.55,7,7,0,0,1-1.2-.08,1.85,1.85,0,0,0-1.35.67,5.45,5.45,0,0,0-1.28,2.85,6.52,6.52,0,0,0,.37,3.54c.27.69.83,2.4,1.31,3.33s1.11,1.73,1.43,2.34a3.62,3.62,0,0,1,.51,1.6,21.71,21.71,0,0,0,2.53,5,3,3,0,0,0,2.47,1.3,1.73,1.73,0,0,0,1.49-.34,16.31,16.31,0,0,0-1.54-3,.84.84,0,0,0-.48-.34s-.1-.29,0-.4,1,.11,1.39.32,2.45,5.13,2.58,5.3a7.32,7.32,0,0,0,1.81.55c.1,0-1.39-3.88-1.37-4s.68,0,.76,0,1.37,4.13,1.37,4.13l.6.19c-.22-.84-.88-5.39-1-5.44a24.91,24.91,0,0,1-7.11-6.6,7.62,7.62,0,0,1-1.38-4.79,3.34,3.34,0,0,1,.8-2.56.57.57,0,0,1,.16-.15,4.92,4.92,0,0,1,3.14-1.47c0-.14.35-.11.63-.11s.38-.08.4-.3-.21-.37-.5-.55-.53,0-1.07.13a2.73,2.73,0,0,1-1.46-.27c-.19-.08-.16-.18.08-.24.67-.14,1.12-.16,1.44-.71a10.89,10.89,0,0,1-3.33,0A3.65,3.65,0,0,1,249,96c-.14-.19.06-.27.21-.27s.33.37.68.47a22.66,22.66,0,0,0,3.14-.12c.46-.06.72-.52.87-.65s0-.28-.17-.3-.88.14-1.13.14-.27,0-.27-.18,1-.56,1.3-.83a2,2,0,0,0,.51-.88s.07-.23.23-.21.25.41.42.94a3.08,3.08,0,0,1-.73,2.16.89.89,0,0,1-.44.23c.16.2,1.57,1.91,2.3,3,.29.44.63,1,1,1.63.1.11.22.24.29.3a2.58,2.58,0,0,0,2.39,1.16,4.51,4.51,0,0,0,3.74-1.36c1-1.3,1.6-2.76,2.85-3.65a6.84,6.84,0,0,0,2.1-1,6.06,6.06,0,0,1-.11,2.13c.36-.57,1.25-1.36,1.43-2a14.68,14.68,0,0,1,.87-3.58c-.13.09,2.32-2.37,4.16-2.79a14.39,14.39,0,0,1,2.09,0,3.91,3.91,0,0,1,2,1.37,3.07,3.07,0,0,0-3.38-.07c-1.67,1.08-2.9,4.07-4.32,6.62-3.1,5.5-9.59,5.38-11.57,5.3l-1.37,0c0,.1.07.19.1.28s.6-.17,1.65.28c.39.19,2,1,2.18,2.31a2.07,2.07,0,0,1-1,.53,2.12,2.12,0,0,1-1.35-.09,1.93,1.93,0,0,1-1-.8l.14.86a3.32,3.32,0,0,0,1.73.85,3.12,3.12,0,0,0,2.73-1.07l2-2.64c.08-.12.16-.12.23,0a3.65,3.65,0,0,1,.34,3,3.49,3.49,0,0,1-3,1.77,8.93,8.93,0,0,1-2.48-.34,4,4,0,0,1-1.34-.74c.23,1.32.48,2.71.72,3.76.56,2.45,2.39,4.66,2.52,5.22s-2.68-.35-2.87-.27.69,4.3.53,4.33a32.55,32.55,0,0,1-4.71-1.22c-.43-.29-.69-1.56-.88-1.69s-.35.1-.59.29.06,1.33.3,1.54a14.24,14.24,0,0,0,1.44.56c.23.16.37.59.53.69s.72.56.72.56l-.41,0h11.64v18.4l.88.14a1.09,1.09,0,0,1,.75.64l1.4,5h3.49l0-1.2a13.29,13.29,0,0,0-.66-5.24c-4.56-8.93-5.74-15.21-3.36-21.36A6.88,6.88,0,0,1,273,114.9c.52-.08.63-.34.24-.78a7.47,7.47,0,0,1-.46-3.22.89.89,0,0,1-.13-1.05c.3-.69,1-.52,1.06.21.07,1.48-.27,2.83.4,3.77a1.72,1.72,0,0,0,1.37.77l2,.14a1.44,1.44,0,0,0,1.17-.67c.44-.11.53.07.27.53a2.17,2.17,0,0,1-1.17,1.09l-3-.18q-3.25.38-3.72,4.3c-1.07,3.67-.48,8.47,1.75,14.44,2.17,4,2.73,5.76,2.77,6.37l.2,3.93a3.41,3.41,0,0,0,1.43,3.07,4,4,0,0,1,2.07,2.3,5.33,5.33,0,0,0,2.56,3.36c1.55.59,3.27.62,3.55.11a1.48,1.48,0,0,0,.13-1.68l-1.16-3a5.73,5.73,0,0,0-1.4-1.86c-.17-.34,0-.66.47-.51l1.06.56.86,1.1,3.94,10.13,2.78.84-1.21-8.31,1,.39,1.14,8.16,1,.41-1.61-11.45q-12.53-11-13-19.33c-.42-2.44.11-5.44,1.35-6.52m-25.4-11.22c2.4,2.17,4.69,3.59,4.27,3.17-.08-.08-.61-1.46-.72-1.67S257,111,255.8,110c-.14.4-.28.77-.41,1.11m.78-2.14a32.09,32.09,0,0,0,2.85,1.77c.1,0,0-.13,0-.29s-1.6-1.32-2.6-2.11c-.06.21-.13.42-.2.63m.46-1.58c.81.56,2,1.43,2.1,1.46s0-.26-.06-.42a21,21,0,0,0-1.87-1.82c-.05.26-.11.53-.17.78m.34-2,1.44,1.25a1.9,1.9,0,0,0-.11-.56,12.22,12.22,0,0,0-1.29-1.64c0,.32,0,.64,0,1m-.08-2.49c.05-.2.93.94.93.94s.06,0-.13-.4a8.54,8.54,0,0,0-1.06-1.67,9.21,9.21,0,0,1,.26,1.13M252.58,118a2,2,0,0,1-1.29-.1s-.07,1.17,0,1.36.76.32.89.42.49-.21.49-.21a12.14,12.14,0,0,0,0-1.47m-3.82,3.45h6.51c-.21-.11-1-.8-1.32-.71-.12,0,.67.7.67.7a11.55,11.55,0,0,1-1.27,0c-.16-.06-1.33-.8-1.54-.88s-2.48.78-3.05.92m-1.67,0h1.53a1.84,1.84,0,0,1-.26-.56,6.74,6.74,0,0,0-1.27.56M267.83,142v7.64A5.2,5.2,0,0,0,269,148a5,5,0,0,0-.08-3.67,18.39,18.39,0,0,0-1.05-2.31m-32.29,7.77v-8a16.55,16.55,0,0,0-1.17,2.53,5,5,0,0,0-.09,3.68,5.24,5.24,0,0,0,1.26,1.77m15-13.47a3,3,0,0,0-3.56,1.69q-3.42.14-3.6,3.31a2,2,0,0,0-1.63,2q-1.64.15-1.92,2.4c-1.74,0-1.89,2.64.14,2.94a6.58,6.58,0,0,1,1.3,2.43,5.45,5.45,0,0,0,1.7,2.25,6.34,6.34,0,0,0,.34,2.76l.2,2.7c.29.7.78,1.42,1.52,1.45,1.2-.08,1.4-.91,1-2.5l.11-3.2a1.9,1.9,0,0,1,.46,1c.17,1.29.16,3.19.36,5.66.45,1.16.75,1,1.4,1.21.79-.06,1.19-.45,1.37-1.4a5.13,5.13,0,0,0-.33-2,19.41,19.41,0,0,1-.12-4.37,5.62,5.62,0,0,1,.36-2.34,3.31,3.31,0,0,0,.78-2.26c.14-.3,1-.25,1.28-.83a13.51,13.51,0,0,0-.08-4,4.17,4.17,0,0,1-.27-2.33.81.81,0,0,1,1-.81c.52,0,.87.31,1,1a8.54,8.54,0,0,1-.11,1.86,5.18,5.18,0,0,0,.46,2.9c.07.26-.05.56,0,.81a5.42,5.42,0,0,0-.54,1.84,5.64,5.64,0,0,0,.32,1.61c.37.78.55,2.66.53,5.76a1,1,0,0,0,0,1.22A1.55,1.55,0,0,0,256,159a4.48,4.48,0,0,0,.75-1.28,20.85,20.85,0,0,0-.06-4.54c0-.24.12-.36.31-.35a5.59,5.59,0,0,1,.72,1.77c0,3.21-.37,5-.26,5.74.13.44.55.69,1.46.64.66-.3,1.79-2.1,1.79-2.1a15.11,15.11,0,0,0,.06-4.59,2.81,2.81,0,0,1,.06-1c.08-.29.13-.34.34-.37.87.22,1.47-.23,1.8-1.34a8,8,0,0,0-.06-2.26,2.24,2.24,0,0,0-.51-1.39q1.26-2.07-.64-4.06c.44-1.67-.24-2.93-2.05-3.8.06-1.66-.9-2.47-2.89-2.43-.33-1.05-1.24-1.56-2.74-1.51.16-1.53-.15-2.58-1.71-2.78-.42,0-2.56.08-1.83,2.89m-6-3.9-1.16-3.56,3-2.2h-3.74l-1.16-3.55-1.15,3.55H236.6l3,2.2-1.15,3.56,3-2.2Zm10.09,0-1.15-3.56,3-2.2h-3.75l-1.15-3.55-1.16,3.55h-3.74l3,2.2-1.16,3.56,3-2.2Zm10.21,0-1.15-3.56,3-2.2H263l-1.15-3.55-1.16,3.55H256.9l3,2.2-1.16,3.56,3-2.2Zm-49.16,6.28c-3,3.4-5.11,5.53-6.38,6.29a11.63,11.63,0,0,1-1.25,3.87,58.68,58.68,0,0,0,8.62-8.16c-.29-.61-.63-1.28-1-2m-1.16-2.48a50.77,50.77,0,0,1-5.37,5.36,5.87,5.87,0,0,0,0,.59,31.44,31.44,0,0,0,6-4.73c-.19-.39-.37-.8-.55-1.22m-1-2.74a32,32,0,0,1-3.62,3.9l-.08.78a39.25,39.25,0,0,0,4.11-3.47c-.15-.4-.28-.8-.41-1.21m-.79-3.57c-.82,1.13-1.41,2-2.09,2.83l-.08,1.15,2.42-2.47c-.1-.49-.19-1-.25-1.51m0-4.25a16.28,16.28,0,0,0-.84,1.51,3.27,3.27,0,0,0-.51,1.73l1.25-1.84a13.37,13.37,0,0,1,.1-1.4m37.77-33A.63.63,0,1,0,251,92a.63.63,0,0,0-.63.63m-5.56-3a.51.51,0,0,0,.17.47,3.21,3.21,0,0,0,.8.37c.37.16.77.35,1.1.48s.59.06.88.37a2.48,2.48,0,0,1,.5.92c.09.27.09.55.23.92s.05.53.25.61.32.07.43-.08a1.7,1.7,0,0,0,.23-.74,2.23,2.23,0,0,1,.45-1,2.67,2.67,0,0,1,1.55-.87A11.57,11.57,0,0,0,252.8,91c.52-.13.8-.2.87-.46s.09-.6-.29-.7a15.36,15.36,0,0,0-4.3-.71c-1.82,0-3.57.39-3.77.38a.5.5,0,0,0-.46.19m1.47,2.7a.63.63,0,0,0,1.26,0,.63.63,0,1,0-1.26,0M242,88.54s5.48-.7,6.7-.72a31.42,31.42,0,0,1,4.54.6c1,.17,2.87.06,3,.16s.35.35,0,.58-1.52.94-1.52,1.22.08.51-.11.64-.38,0-1,.29a2.68,2.68,0,0,0-1.14.8c-.12.23-.17.18-.14.46s.29.47.16.58-.23,0-.35.14a1.48,1.48,0,0,1-1,.49c-.48,0-.48-.08-.84,0A2,2,0,0,0,249,95.07c-.1.28-.14.34-.26.24s-.08-.22-.27-.57-.51-1.07-1-1.14a4.62,4.62,0,0,1-1.56-.33c-.27-.23-.6-.21-.56-.46s.3-.25.3-.64a1.34,1.34,0,0,0-.79-1.2c-.63-.39-1.3-.5-1.37-.67s0-.19.05-.37.27-.13-.05-.23a4.88,4.88,0,0,1-1.48-.52c-.19-.21-.33-.59-.25-.62a.25.25,0,0,1,.16,0m75.2,33.84q0,12.06.63,26.57,8.37.36,11.07.36,7.39,0,11.08-1.36a8.13,8.13,0,0,0,4.14-3.51l1.08.36a12.5,12.5,0,0,1-.81,4,26.78,26.78,0,0,1-1.62,4.19q-5.13-.54-30.35-.54h-3.15l-.54-1.35.6-12.34q.3-6.39.3-16.39c0-4.45-.45-11.78-.45-11.78l-.28-4.84.54-1.35h8.1l.54,1.35c-.08,1.58-.15,3.16-.22,4.73,0,0-.66,8-.66,11.89m150.79,29-.53,1.26h-7.11l-.63-1.26v-4a14.39,14.39,0,0,1-11.8,5.57,20.22,20.22,0,0,1-14.79-6.07,20.56,20.56,0,0,1,0-29.29A20.31,20.31,0,0,1,448,111.55a16.56,16.56,0,0,1,12.37,4.85c0-7.19-.21-6.28-.63-17l.63-1.26h7.11L468,99.4c-.54,9-.81,10.23-.81,23.29q0,12.94.81,28.67m-7.64-24.62q-2.5-12.13-14.42-12.13a9.23,9.23,0,0,0-7.7,4.13,17.43,17.43,0,0,0-3,10.61,19.12,19.12,0,0,0,.27,3.14,25.87,25.87,0,0,0,4.72,12.81q3.81,5.07,9,5.07a11.14,11.14,0,0,0,6.65-2.2,11.29,11.29,0,0,0,4.22-6.06q.21-5.76.27-15.37m43.89,13.52a11.36,11.36,0,0,1-4.89,9.63,16.94,16.94,0,0,1-10.69,3.43,21.59,21.59,0,0,1-10.86-2.62c-1-.35-2.84-1.08-5.62-2.16a25.46,25.46,0,0,1,.91-8q3.54,5.58,6.07,7.11a18.33,18.33,0,0,0,9.43,2.89,10.54,10.54,0,0,0,6.26-2.17q3.36-2.34,3.36-5.4a7,7,0,0,0-3-5.85q-2.07-1.73-7.56-3a60,60,0,0,1-8.74-2.61,10.57,10.57,0,0,1-6-6.21,12.55,12.55,0,0,1-.72-4.15,9.25,9.25,0,0,1,2.25-5.67,11,11,0,0,1,5.59-3.78,28.84,28.84,0,0,1,7.83-.81,47.5,47.5,0,0,1,8.38,1.26q3.33.72,6.66,1.35a43.86,43.86,0,0,1-.45,10q-3.69-5.51-6.4-7.21a15.37,15.37,0,0,0-8.73-2.52,10.79,10.79,0,0,0-5,.9q-3.87,2.16-3.87,5.31c0,1.74,1,3.19,2.88,4.33a33.58,33.58,0,0,0,8.42,3.19,50,50,0,0,1,7.79,2.57q6.75,3.6,6.75,10.18m-185.55,24-.72,0a3.18,3.18,0,0,0-3.3-2.13,3.64,3.64,0,0,0-2.8,1.28,4.55,4.55,0,0,0-1.15,3.13,5.29,5.29,0,0,0,1.32,3.56,3.65,3.65,0,0,0,2.78,1.47,4,4,0,0,0,3.34-1.21l.41.61a4.19,4.19,0,0,1-1.38,1.2,5.75,5.75,0,0,1-2.47.44,5.66,5.66,0,0,1-4.06-1.68,5.57,5.57,0,0,1-1.81-4.2,5.29,5.29,0,0,1,1.77-3.9,5.57,5.57,0,0,1,4-1.72,8.32,8.32,0,0,1,2.94.64,1.67,1.67,0,0,0,1,.09l.14.09Zm11.77-2.51q-.15,2.64-.15,5.16c0,1.42.05,3.13.15,5.15l-.15.38h-1.75l-.16-.38.1-2.28c0-.73.06-1.69.06-2.87s-.05-2.84-.16-5.16l.16-.36h1.75Zm20.05.57-2.84-.06c-.37,0-1,0-1.83,0-.09,1.46-.13,3-.13,4.61s.05,3.22.15,5.27l-.11.26h-1.87l-.1-.26.1-2.25c0-.79,0-1.8,0-3s0-2.17-.05-2.93l-.09-1.7-1.76,0-2.81.06a2.76,2.76,0,0,1,.19-.93h10.94a3.19,3.19,0,0,1,.17.93m17.86-.78-1.25,1.78q-.92,1.36-2.75,3.95v.34c0,.59.08,2.11.17,4.57l-.1.26h-1.89l-.11-.26c.1-2.4.15-3.93.15-4.57v-.51q-1.36-2-2.83-3.89c-.25-.38-.64-.94-1.17-1.67l.09-.15h1.8l.24.15.93,1.57c.77,1.39,1.5,2.6,2.21,3.65a35.33,35.33,0,0,0,2.13-3.55l.93-1.67.24-.15h1.13Zm32.54,2.72-.73,0a3.16,3.16,0,0,0-3.3-2.13,3.62,3.62,0,0,0-2.79,1.28,4.5,4.5,0,0,0-1.15,3.13,5.29,5.29,0,0,0,1.32,3.56,3.63,3.63,0,0,0,2.77,1.47,4,4,0,0,0,3.35-1.21l.4.61a4.19,4.19,0,0,1-1.38,1.2,5.75,5.75,0,0,1-2.47.44,5.67,5.67,0,0,1-4.06-1.68,5.6,5.6,0,0,1-1.8-4.2,5.28,5.28,0,0,1,1.76-3.9,5.6,5.6,0,0,1,4-1.72,8.32,8.32,0,0,1,2.93.64,1.68,1.68,0,0,0,1,.09l.15.09Zm20.67,2.63a5.5,5.5,0,0,1-1.9,4.1,6.05,6.05,0,0,1-4.22,1.79,6,6,0,0,1-4.27-1.77,5.5,5.5,0,0,1,.07-8.27,5.82,5.82,0,0,1,8.45,0,5.61,5.61,0,0,1,1.87,4.16m-1.87,0a5.5,5.5,0,0,0-1.44-3.54,4,4,0,0,0-3-1.5,3.67,3.67,0,0,0-3,1.49,5,5,0,0,0-1.09,3.55,5.4,5.4,0,0,0,1.44,3.54,4,4,0,0,0,3,1.5,3.65,3.65,0,0,0,2.92-1.49,5.06,5.06,0,0,0,1.13-3.55m19.45-5.27a41.43,41.43,0,0,0-.19,5.29v2a4.41,4.41,0,0,1-.9,2.15,3.5,3.5,0,0,1-2.87,1.57,6.79,6.79,0,0,1-2.57-.28,3.51,3.51,0,0,1-1.67-1.1,5.18,5.18,0,0,1-.67-2.38c0-.19,0-.84,0-2a40.55,40.55,0,0,0-.19-5.29l.11-.23H432l.11.23L432,163.9c0,.78-.06,1.79-.06,3a15.18,15.18,0,0,0,.06,1.66,5.85,5.85,0,0,0,.26,1.36,2.67,2.67,0,0,0,2.87,1.74,2.73,2.73,0,0,0,1.55-.57,3.2,3.2,0,0,0,1-1.23,4.76,4.76,0,0,0,.34-1.51c0-.14,0-.63,0-1.45,0-1.23,0-2.24,0-3l-.11-2.27.11-.23h1.06Zm18.41,10.56-.1.26h-2.15l-.28-.26a9,9,0,0,0-.72-1.06c-.4-.49-.66-.83-.79-1q-.91-1.37-2.83-4.06c-.21-.3-.53-.74-1-1.32a16.57,16.57,0,0,0-.15,2.19c0,1.46.05,3.22.15,5.27l-.11.26h-1l-.11-.26.11-2.25c0-.79,0-1.8,0-3,0-.37,0-1.14-.07-2.31s-.08-1.92-.08-2.24v-.74l.11-.23h1.23q.74,1.24,1.74,2.7t2.94,4.35c.81,1.08,1.44,1.94,1.89,2.57l0-.78c.05-.87.07-2,.07-3.32s0-2.24-.07-3l-.1-2.27.1-.23h1.07l.1.23c-.11,1.79-.17,3.55-.17,5.29,0,1.46.06,3.22.17,5.27m18.5-7.92-.72,0a3.18,3.18,0,0,0-3.3-2.13,3.64,3.64,0,0,0-2.8,1.28,4.55,4.55,0,0,0-1.15,3.13,5.29,5.29,0,0,0,1.32,3.56,3.64,3.64,0,0,0,2.77,1.47,4,4,0,0,0,3.35-1.21l.41.61a4.12,4.12,0,0,1-1.39,1.2A6.16,6.16,0,0,1,468,171a5.57,5.57,0,0,1-1.81-4.2,5.29,5.29,0,0,1,1.77-3.9,5.57,5.57,0,0,1,4-1.72,8.32,8.32,0,0,1,2.94.64,1.65,1.65,0,0,0,1,.09l.15.09Zm11.77-2.51q-.15,2.64-.15,5.16c0,1.42.05,3.13.15,5.15l-.15.38h-1.75l-.17-.38.11-2.28c0-.73.06-1.69.06-2.87s-.05-2.84-.17-5.16l.17-.36h1.75Z"/></g></g></g><line class="cls-5" x1="178.56" y1="17.55" x2="178.56" y2="246.47"/></svg>